<svg width="73" height="69" viewBox="0 0 73 69" fill="none" xmlns="http://www.w3.org/2000/svg">
<path d="M72.5892 61.68V68.25H50.9892V64.02V61.68C50.9892 61.23 50.9892 60.87 51.0792 60.51C51.0792 60.33 51.0792 60.15 51.1692 60.06C51.1692 59.88 51.2592 59.7 51.2592 59.52C51.8892 56.46 53.7792 53.94 56.3892 52.41C54.8592 50.97 53.8692 48.9 53.8692 46.56C53.8692 42.33 57.1992 38.91 61.3392 38.64C61.5192 38.64 61.6092 38.64 61.7892 38.64C62.1492 38.64 62.4192 38.64 62.7792 38.73C62.8692 38.73 62.9592 38.73 63.0492 38.73C63.3192 38.73 63.5892 38.82 63.8592 38.91C63.9492 38.91 63.9492 38.91 64.0392 38.91C64.6692 39.09 65.2992 39.36 65.9292 39.72C68.2692 41.07 69.8892 43.68 69.8892 46.56C69.8892 48.9 68.8992 50.88 67.3692 52.41C70.4292 54.21 72.5892 57.63 72.5892 61.68ZM22.0092 59.97C22.0092 59.79 21.9192 59.61 21.9192 59.43C21.2892 56.37 19.3992 53.85 16.7892 52.32C18.3192 50.88 19.3092 48.81 19.3092 46.47C19.3092 42.24 15.9792 38.82 11.8392 38.55C11.6592 38.55 11.5692 38.55 11.3892 38.55C11.0292 38.55 10.7592 38.55 10.3992 38.64C10.3092 38.64 10.2192 38.64 10.1292 38.64C9.85918 38.64 9.58918 38.73 9.31918 38.82C9.22918 38.82 9.22918 38.82 9.13918 38.82C8.50918 39 7.87918 39.27 7.24918 39.63C4.90918 40.98 3.28918 43.59 3.28918 46.47C3.28918 48.81 4.27918 50.79 5.80918 52.32C2.56918 54.21 0.40918 57.63 0.40918 61.68V68.25H22.0092V64.02V61.68C22.0092 61.23 22.0092 60.87 21.9192 60.51C22.0992 60.24 22.0992 60.15 22.0092 59.97ZM29.8392 12.45C30.0192 12.72 30.1992 12.99 30.3792 13.17C30.4692 13.26 30.4692 13.26 30.5592 13.35C30.7392 13.62 31.0092 13.89 31.2792 14.07C28.0392 15.96 25.8792 19.38 25.8792 23.43V30H47.4792V23.43C47.4792 19.74 45.6792 16.59 42.8892 14.61C42.6192 14.43 42.3492 14.25 42.0792 14.07C42.3492 13.8 42.5292 13.62 42.7992 13.35C42.8892 13.26 42.8892 13.26 42.9792 13.17C43.1592 12.9 43.3392 12.72 43.5192 12.45C43.5192 12.45 43.5192 12.45 43.5192 12.36C43.8792 11.73 44.1492 11.1 44.4192 10.38C44.5992 9.75001 44.6892 9.03001 44.6892 8.31001C44.6892 3.90001 41.0892 0.390015 36.7692 0.390015C32.3592 0.390015 28.8492 3.99001 28.8492 8.31001C28.6692 9.75001 29.0292 11.19 29.8392 12.45C29.8392 12.36 29.8392 12.36 29.8392 12.45ZM12.0192 35.85C12.9192 27.57 17.8692 20.55 24.8892 16.77C25.5192 15.6 26.4192 14.52 27.4092 13.53C26.9592 12.81 26.5992 12 26.4192 11.1C15.8892 15.06 8.23918 24.87 7.42918 36.57C8.68918 36.03 10.0392 35.76 11.3892 35.76C11.5692 35.85 11.7492 35.85 12.0192 35.85ZM24.7992 60.33C24.7992 60.78 24.8892 61.23 24.8892 61.68V65.37C28.4892 66.9 32.4492 67.8 36.5892 67.8C40.7292 67.8 44.6892 66.9 48.2892 65.37V61.68C48.2892 61.23 48.2892 60.78 48.3792 60.33C44.8692 62.22 40.9092 63.3 36.5892 63.3C32.2692 63.3 28.3092 62.22 24.7992 60.33ZM61.1592 35.85C61.3392 35.85 61.5192 35.85 61.7892 35.85C63.2292 35.85 64.5792 36.12 65.7492 36.66C65.0292 24.96 57.2892 15.15 46.7592 11.19C46.4892 12 46.2192 12.81 45.7692 13.62C46.7592 14.52 47.6592 15.69 48.2892 16.86C55.3092 20.55 60.2592 27.66 61.1592 35.85Z" fill="#EF208A"/>
</svg>
