<svg width="74" height="74" viewBox="0 0 74 74" fill="none" xmlns="http://www.w3.org/2000/svg">
<path d="M73.45 37L66.07 29.62V34.12H43.93L59.59 18.46L62.74 21.61V11.17H52.3L55.45 14.32L39.88 30.07V7.93005H44.38L37 0.550049L29.62 7.93005H34.12V30.07L18.46 14.41L21.61 11.26H11.17V21.7L14.32 18.55L29.98 34.21H7.93005V29.71L0.550049 37L7.93005 44.38V39.88H30.07L14.41 55.54L11.17 52.3V62.74H21.61L18.46 59.59L34.12 43.93V66.07H29.62L37 73.45L44.38 66.07H39.88V43.93L55.54 59.59L52.3 62.83H62.74V52.39L59.59 55.54L43.93 39.88H66.07V44.38L73.45 37ZM37 42.4C34.03 42.4 31.6 39.97 31.6 37C31.6 34.03 34.03 31.6 37 31.6C39.97 31.6 42.4 34.03 42.4 37C42.4 39.97 39.97 42.4 37 42.4Z" fill="#EF208A"/>
</svg>
