<svg width="91" height="90" viewBox="0 0 91 90" fill="none" xmlns="http://www.w3.org/2000/svg">
<path d="M46.1782 82.6667C38.7614 82.6667 31.5112 80.4629 25.3444 76.334C19.1775 72.2051 14.371 66.3366 11.5328 59.4705C8.69447 52.6045 7.95185 45.0492 9.39879 37.7602C10.8457 30.4713 14.4173 23.7759 19.6617 18.5208C24.9062 13.2658 31.5881 9.68703 38.8623 8.23716C46.1366 6.78729 53.6766 7.53142 60.5289 10.3754C67.3811 13.2195 73.2378 18.0356 77.3583 24.2149C81.4789 30.3942 83.6782 37.6591 83.6782 45.0909C83.6192 55.0384 79.6494 64.5616 72.6295 71.5956C65.6096 78.6297 56.1056 82.6075 46.1782 82.6667V82.6667ZM46.1782 15.0303C40.2448 15.0303 34.4446 16.7933 29.5111 20.0964C24.5777 23.3995 20.7325 28.0944 18.4619 33.5872C16.1912 39.0801 15.5971 45.1243 16.7547 50.9554C17.9122 56.7866 20.7695 62.1429 24.965 66.347C29.1606 70.551 34.5061 73.414 40.3255 74.5739C46.145 75.7338 52.177 75.1385 57.6587 72.8633C63.1405 70.5881 67.8259 66.7351 71.1223 61.7917C74.4188 56.8482 76.1782 51.0363 76.1782 45.0909C76.1193 37.1366 72.9397 29.5248 67.3264 23.9001C61.713 18.2753 54.1165 15.0893 46.1782 15.0303V15.0303Z" fill="#EF208A"/>
<path d="M63.9907 48.8485H46.1782C45.1837 48.8485 44.2298 48.4526 43.5266 47.7479C42.8233 47.0432 42.4282 46.0874 42.4282 45.0909V26.5285C42.4282 25.5319 42.8233 24.5761 43.5266 23.8714C44.2298 23.1668 45.1837 22.7709 46.1782 22.7709C47.1728 22.7709 48.1266 23.1668 48.8299 23.8714C49.5331 24.5761 49.9282 25.5319 49.9282 26.5285V41.3333H63.9907C64.9853 41.3333 65.9391 41.7292 66.6424 42.4339C67.3456 43.1386 67.7407 44.0943 67.7407 45.0909C67.7407 46.0874 67.3456 47.0432 66.6424 47.7479C65.9391 48.4526 64.9853 48.8485 63.9907 48.8485Z" fill="#EF208A"/>
</svg>
